<?xml version="1.0" encoding="UTF-8" standalone="no"?>
<!-- Created with Inkscape (http://www.inkscape.org/) -->

<svg
   width="622.18597"
   height="207.10001"
   viewBox="0 0 164.62004 54.795211"
   version="1.1"
   id="svg5"
   inkscape:version="1.1 (c68e22c387, 2021-05-23)"
   sodipodi:docname="trane.svg"
   xmlns:inkscape="http://www.inkscape.org/namespaces/inkscape"
   xmlns:sodipodi="http://sodipodi.sourceforge.net/DTD/sodipodi-0.dtd"
   xmlns="http://www.w3.org/2000/svg"
   xmlns:svg="http://www.w3.org/2000/svg">
  <sodipodi:namedview
     id="namedview7"
     pagecolor="#ffffff"
     bordercolor="#666666"
     borderopacity="1.0"
     inkscape:pageshadow="2"
     inkscape:pageopacity="0.0"
     inkscape:pagecheckerboard="0"
     inkscape:document-units="mm"
     showgrid="false"
     units="px"
     width="622.186px"
     inkscape:snap-page="true"
     inkscape:zoom="1.0381216"
     inkscape:cx="227.81531"
     inkscape:cy="103.55241"
     inkscape:window-width="2560"
     inkscape:window-height="1017"
     inkscape:window-x="2552"
     inkscape:window-y="-8"
     inkscape:window-maximized="1"
     inkscape:current-layer="layer1" />
  <defs
     id="defs2" />
  <g
     inkscape:label="Layer 1"
     inkscape:groupmode="layer"
     id="layer1">
    <path
       style="fill:#ee3b12;stroke-width:0.0555612"
       d="m 27.720995,54.118504 c -2.959667,-0.253667 -5.935396,-1.006436 -8.584216,-2.171522 -3.392317,-1.492129 -6.553972,-3.76092 -9.009082,-6.464859 -0.6573309,-0.72396 -0.6931842,-0.774955 -0.5556116,-0.790247 0.080885,-0.0088 3.5349076,0.07207 7.6756116,0.180193 4.140702,0.108104 9.478749,0.246002 11.862328,0.306446 2.383577,0.06046 4.60268,0.120109 4.931336,0.132612 l 0.597557,0.02272 0.24901,-0.781188 c 0.136953,-0.429656 0.238568,-0.791632 0.225813,-0.804388 -0.01275,-0.01278 -5.006683,0.09196 -11.097618,0.232612 -6.090935,0.140696 -11.761994,0.268685 -12.60236,0.284435 -0.840364,0.0157 -1.6955796,0.04067 -1.90048,0.0553 l -0.3725471,0.02672 -0.2987271,-0.37519 C 8.1708367,43.12917 6.8623199,41.156936 6.9295746,41.089694 c 0.016257,-0.01629 1.1631024,-0.0029 2.5485631,0.03092 3.0705563,0.07373 10.2412143,0.23501 18.6040053,0.418451 3.437853,0.07539 6.575675,0.144246 6.972938,0.152955 l 0.722297,0.0159 0.256769,-0.777852 0.256767,-0.777862 -0.185363,-0.01707 c -0.10195,-0.0098 -3.380322,0.04701 -7.285269,0.125395 -3.904946,0.07841 -10.209504,0.204866 -14.010125,0.281051 -3.80062,0.07617 -7.1923431,0.138502 -7.5371615,0.138502 H 6.6460532 L 6.5079843,40.443947 C 6.0664271,39.688759 5.0501249,37.524229 5.1093164,37.465043 c 0.01615,-0.01609 2.6726177,0.02614 5.9032886,0.09391 3.230668,0.06778 10.049371,0.208865 15.152673,0.313507 5.103302,0.104661 9.610104,0.200965 10.015116,0.214024 l 0.736384,0.0237 0.214621,-0.673591 c 0.118039,-0.370479 0.233305,-0.733508 0.256148,-0.806728 l 0.04154,-0.133138 -1.881513,0.03784 c -1.034834,0.02077 -4.719307,0.0868 -8.18772,0.146528 -3.468412,0.05978 -9.929413,0.172538 -14.357781,0.250556 -6.1679985,0.10868 -8.0610517,0.126546 -8.0920766,0.07636 C 4.8362984,36.88876 4.2537904,35.106764 4.0898116,34.498904 L 3.9286793,33.901616 H 4.715288 c 0.4326357,0 3.9857222,0.06242 7.895749,0.138648 11.207566,0.218569 21.207434,0.411498 23.416369,0.451775 l 2.027987,0.03696 0.239053,-0.76453 c 0.13148,-0.420499 0.225047,-0.778545 0.207931,-0.79566 -0.01712,-0.01707 -7.637965,0.09914 -16.935213,0.258367 -9.297248,0.159206 -17.0929506,0.28858 -17.3237823,0.287488 L 3.8236872,33.512714 3.666613,32.74875 C 3.5205452,32.038325 3.2398189,30.278135 3.2680712,30.249853 c 0.00692,-0.0068 3.3113885,0.04905 7.3433358,0.124371 4.031945,0.07529 11.443732,0.211235 16.470638,0.302087 5.026903,0.09089 9.806319,0.181539 10.62092,0.201541 l 1.481095,0.03638 0.255195,-0.780836 c 0.140358,-0.429462 0.255196,-0.795719 0.255196,-0.813916 0,-0.01824 -0.593811,-0.01843 -1.31958,-6.25e-4 -0.725769,0.01785 -5.182477,0.09333 -9.903796,0.167574 -4.721319,0.07431 -10.159376,0.16142 -12.084575,0.193651 -10.1492606,0.169895 -13.1089496,0.21536 -13.1227315,0.20158 -0.095377,-0.09538 -0.17838,-3.222711 -0.086961,-3.276554 0.022918,-0.01356 1.8793619,0.0088 4.1254254,0.04974 7.0531021,0.128262 10.4075351,0.187888 18.5574591,0.329832 4.354615,0.07587 9.205114,0.162932 10.778887,0.193534 1.573773,0.03062 3.052203,0.05569 3.285397,0.05588 l 0.423994,2.14e-4 0.25365,-0.790101 c 0.139507,-0.434561 0.24874,-0.792987 0.24274,-0.796508 -0.0059,-0.0029 -2.036114,0.02584 -4.511368,0.06524 -2.475253,0.0394 -7.788301,0.122908 -11.806769,0.185489 -8.043781,0.125287 -12.314558,0.193631 -17.7157695,0.283518 -1.966484,0.03267 -3.5895696,0.04535 -3.6068526,0.02809 -0.074702,-0.0747 0.2493933,-3.145854 0.3417191,-3.238179 0.017535,-0.01755 3.1389935,0.02243 6.93658,0.08884 3.797584,0.06641 11.142636,0.194811 16.322334,0.285381 5.179701,0.0906 10.592755,0.187263 12.029014,0.214882 1.436259,0.0276 2.627914,0.03403 2.648121,0.01434 0.06042,-0.059 0.506984,-1.510854 0.47465,-1.543192 -0.01639,-0.01638 -1.663343,-0.002 -3.65985,0.0315 -1.996508,0.03364 -10.080677,0.159381 -17.964821,0.279276 -7.88414,0.119894 -14.8786107,0.230212 -15.5432621,0.245143 -0.6646533,0.01492 -1.2084583,0.01531 -1.2084583,6.53e-4 0,-0.01443 0.089545,-0.430036 0.1989993,-0.923522 0.3199237,-1.44247 0.765017,-2.876163 1.3328341,-4.29319 0.388766,-0.970212 1.4762336,-3.099545 2.0489141,-4.01193 C 9.4569274,9.7012027 12.45323,6.746426 16.136474,4.508335 16.919314,4.032638 18.773689,3.1001927 19.664613,2.7342382 21.514645,1.9743304 23.63963,1.374009 25.570721,1.065749 28.001835,0.67765677 30.815824,0.62729597 33.221562,0.92880738 40.382747,1.8263199 46.88306,5.6112307 51.251338,11.426918 c 1.043753,1.389594 1.909332,2.813515 2.701968,4.444887 l 0.458926,0.944538 -0.538747,0.0394 c -0.29631,0.02165 -2.951494,0.07919 -5.900406,0.127881 -2.948917,0.04866 -7.299363,0.123903 -9.667662,0.167164 -2.368298,0.0432 -5.356105,0.09294 -6.639572,0.110484 -2.567942,0.03501 -2.916964,0.05451 -2.916964,0.162454 0,0.08572 0.587923,0.09852 11.751206,0.256163 13.179689,0.186103 14.259149,0.205354 14.307716,0.255129 0.04668,0.04788 0.582635,1.615788 0.742897,2.173356 l 0.08384,0.291691 -0.455385,6.53e-4 c -0.250464,4.19e-4 -3.268175,0.04935 -6.706026,0.10867 -3.437855,0.05929 -9.513479,0.161819 -13.501389,0.227774 -3.98791,0.06593 -7.274497,0.142062 -7.303529,0.169124 -0.03333,0.03111 -0.03333,0.06749 0,0.09887 0.0293,0.0276 3.093832,0.09031 6.88682,0.140998 3.758719,0.05022 8.4342,0.114404 10.389955,0.142559 1.955757,0.02818 4.918562,0.06534 6.58401,0.0826 1.665449,0.01726 3.330925,0.04564 3.701061,0.063 l 0.672973,0.0315 0.14452,0.703257 c 0.157166,0.764754 0.337529,1.895395 0.306715,1.922721 -0.01056,0.0098 -2.694494,0.05861 -5.964274,0.109392 -3.26978,0.05081 -8.182785,0.127901 -10.917789,0.171318 -2.735002,0.0434 -6.772919,0.107295 -8.973145,0.141935 -2.349439,0.03696 -4.023148,0.08465 -4.055506,0.115613 -0.03616,0.03452 -0.03007,0.06807 0.01776,0.09765 0.04007,0.02477 1.552515,0.06241 3.360993,0.08367 1.808475,0.02126 5.913407,0.07392 9.12207,0.116998 3.208664,0.04301 8.384195,0.106096 11.501182,0.140053 3.116987,0.03394 5.746095,0.07324 5.842455,0.08718 0.09636,0.01395 0.19097,0.06651 0.210228,0.116706 0.01926,0.05022 0.05057,0.60944 0.06957,1.242783 l 0.03454,1.15153 -0.522582,0.03179 c -0.287418,0.01746 -4.948035,0.09596 -10.356924,0.174488 -16.232669,0.235537 -20.33223,0.308582 -20.38728,0.363224 -0.02853,0.02828 -0.03414,0.06914 -0.01251,0.09079 0.05023,0.05022 0.553985,0.05715 28.059302,0.386756 l 3.159051,0.03784 -0.03609,0.532914 c -0.03803,0.561565 -0.198009,2.021492 -0.224573,2.049491 -0.01423,0.01502 -4.542918,0.08689 -24.969233,0.396167 -4.293689,0.06505 -7.098222,0.128145 -7.130572,0.160494 -0.03405,0.03403 -0.03073,0.06729 0.0092,0.09196 0.06889,0.04262 2.495861,0.07646 24.421907,0.341076 4.125424,0.04983 7.504766,0.09382 7.509649,0.09781 0.01783,0.01463 -0.261765,1.247629 -0.431533,1.903061 l -0.174423,0.673415 -2.201718,0.03764 c -3.247254,0.05549 -11.553646,0.176712 -21.398134,0.312181 -5.068699,0.06973 -8.751005,0.14172 -8.828804,0.172586 -0.07695,0.03053 -0.112242,0.07305 -0.08334,0.100468 0.02757,0.02614 2.350361,0.07548 5.161758,0.109664 2.811401,0.03423 6.999332,0.08592 9.306513,0.11498 2.307183,0.02906 6.620125,0.0789 9.58432,0.110659 2.964192,0.03179 5.996538,0.07285 6.738547,0.09118 1.344968,0.03326 1.348996,0.03364 1.313322,0.152038 -0.08192,0.271787 -0.443584,1.214043 -0.674676,1.757771 -1.894928,4.458511 -5.139884,8.493636 -9.067434,11.275417 -4.05635,2.873004 -8.6351,4.524778 -13.561327,4.892225 -0.879655,0.06563 -3.28623,0.06173 -4.083753,-0.0068 z M 72.308914,35.452025 c 0,-0.03384 0.86258,-2.835068 1.916851,-6.224796 1.054271,-3.389729 1.91688,-6.187445 1.91688,-6.21717 0,-0.03423 -1.005929,-0.05403 -2.750291,-0.05403 -1.512657,0 -2.749706,-0.0068 -2.748996,-0.01395 7.16e-4,-0.0078 0.420375,-1.364022 0.932613,-3.014187 l 0.931334,-3.00031 8.651701,-0.01404 c 5.241093,-0.0088 8.651691,0.0059 8.651691,0.03706 0,0.02818 -0.146674,0.522001 -0.32595,1.097503 -0.179277,0.575511 -0.595553,1.915212 -0.925073,2.977129 l -0.599141,1.930748 H 85.61619 83.271809 l -0.371191,1.181538 c -0.204155,0.649853 -1.091193,3.468888 -1.971191,6.264526 l -1.599999,5.08297 -3.510257,0.01434 c -2.543152,0.01043 -3.510257,-0.0029 -3.510257,-0.0473 z m 12.974938,-0.175307 c 0.06875,-0.208095 2.095171,-6.744925 4.672076,-15.070958 0.472889,-1.52793 0.898215,-2.896819 0.945153,-3.041972 l 0.08533,-0.263916 4.370994,0.002 c 5.388035,0.002 5.995065,0.03969 7.258635,0.450692 1.50314,0.488931 2.58887,1.402184 3.09061,2.599609 0.48417,1.155538 0.41864,2.730815 -0.17866,4.294887 -0.65802,1.723053 -1.98915,2.907244 -4.03317,3.587992 l -0.62267,0.207373 0.89533,1.874106 c 0.49244,1.030768 0.91016,1.873785 0.92827,1.873385 0.0181,-4.29e-4 1.34928,-2.219376 2.95815,-4.931058 1.60886,-2.711681 3.59647,-6.061689 4.4169,-7.444456 l 1.49168,-2.514149 h 3.87074 3.87074 l 0.0329,0.208348 c 0.0282,0.178906 1.20253,11.512281 1.46226,14.112542 0.0496,0.496577 0.10447,0.902428 0.12193,0.901901 0.0175,-6.24e-4 0.62531,-1.919474 1.35076,-4.264313 0.72546,-2.34485 1.78587,-5.769959 2.35647,-7.611367 l 1.03746,-3.347998 3.22368,0.01434 3.22367,0.01434 1.09721,4.055965 c 0.60347,2.230787 1.14048,4.216791 1.19337,4.413358 0.0783,0.291203 0.10426,0.335449 0.13997,0.238882 0.0479,-0.129256 2.27191,-8.649029 2.27191,-8.702939 0,-0.01824 1.58766,-0.03306 3.52813,-0.03306 1.94049,0 3.52815,0.02067 3.52815,0.04593 0,0.02526 -0.60041,1.981694 -1.33424,4.347666 -0.73383,2.365953 -2.02651,6.533407 -2.87258,9.260985 l -1.53833,4.959252 -3.49816,-0.01434 -3.49816,-0.01434 -0.70533,-3.750378 c -0.38792,-2.062706 -0.77546,-4.12469 -0.8612,-4.582189 -0.11093,-0.591876 -0.16906,-0.800224 -0.20154,-0.722293 -0.0251,0.06017 -0.62315,2.109175 -1.32902,4.553195 -0.70589,2.444021 -1.29534,4.462968 -1.30993,4.486559 -0.0145,0.0236 -2.70807,0.04291 -5.98555,0.04291 h -5.95908 l -0.095,-1.569592 c -0.0523,-0.863282 -0.0945,-1.613359 -0.0938,-1.666841 9.7e-4,-0.09118 -0.15859,-0.09723 -2.58605,-0.09723 h -2.58722 l -0.31963,0.680632 c -0.17578,0.374331 -0.52814,1.124409 -0.78298,1.666831 l -0.46335,0.9862 -5.36679,-6.24e-4 -5.366805,-6.25e-4 -1.24155,-3.574534 c -1.117612,-3.217698 -1.338394,-3.825002 -1.341193,-3.689446 -6.33e-4,0.02263 -0.258854,0.847698 -0.574204,1.833518 -0.31535,0.985829 -0.834152,2.611018 -1.152896,3.611544 l -0.579539,1.819143 -3.510882,4.19e-4 -3.510861,4.19e-4 0.07802,-0.236132 z m 29.140878,-7.306286 c 9.8e-4,-0.297445 -0.17951,-4.798865 -0.21192,-5.278727 l -0.0385,-0.569923 -1.37515,2.910335 c -0.75633,1.600692 -1.37514,2.93851 -1.37514,2.972945 0,0.04486 0.42462,0.06261 1.50015,0.06261 1.39154,0 1.50019,-0.0068 1.50056,-0.09723 z M 98.241788,24.326383 c 0.713028,-0.20117 1.16097,-0.574624 1.316198,-1.097346 0.173046,-0.58269 0.05491,-0.913926 -0.400585,-1.123698 -0.238619,-0.109879 -0.370938,-0.122557 -1.457918,-0.139662 l -1.195484,-0.01882 -0.375366,1.185215 c -0.206452,0.651862 -0.374805,1.219884 -0.374123,1.262267 0.002,0.107695 2.064448,0.05139 2.487278,-0.06797 z m 41.462922,11.135072 c 0,-0.04584 0.96096,-3.15424 4.6519,-15.047337 l 1.09063,-3.514246 h 6.62972 c 3.64633,0 6.62887,0.01872 6.62787,0.04164 -9.8e-4,0.02292 -0.35935,1.179285 -0.79631,2.569708 l -0.79446,2.528036 -3.30134,0.02779 -3.30134,0.02779 -0.26009,0.750077 c -0.14303,0.412551 -0.2618,0.781334 -0.2639,0.819534 -0.003,0.05481 0.70344,0.06944 3.35761,0.06944 1.84879,0 3.36146,0.01999 3.36146,0.04457 0,0.03628 -0.63977,2.019737 -1.42385,4.414235 l -0.141,0.430593 h -3.31894 -3.31894 l -0.26089,0.847308 c -0.14349,0.466023 -0.26057,0.878369 -0.26019,0.916334 6.3e-4,0.05413 0.73323,0.07217 3.38175,0.08338 l 3.38104,0.01434 -0.77858,2.51414 -0.77859,2.514139 h -6.74177 c -4.09376,0 -6.74179,-0.02019 -6.74179,-0.05139 z m 21.49001,-14.118374 c -0.60387,-0.101736 -1.22932,-0.547005 -1.49223,-1.062345 -0.6101,-1.195894 -0.15465,-2.666617 0.99226,-3.204172 0.27821,-0.130398 0.38678,-0.148908 0.87332,-0.148908 0.50818,0 0.58719,0.01492 0.92557,0.175278 0.45958,0.217729 0.79004,0.550048 1.01366,1.019279 0.1628,0.341633 0.17209,0.397182 0.17209,1.027882 0,0.646878 -0.006,0.67791 -0.18816,1.0417 -0.31617,0.630046 -0.87155,1.037048 -1.56969,1.150331 -0.19441,0.0315 -0.37847,0.05461 -0.40904,0.0512 -0.0305,-0.0029 -0.17356,-0.02604 -0.31778,-0.05022 z m 0.86695,-0.566656 c 0.3409,-0.101785 0.76864,-0.547201 0.92152,-0.959596 0.1566,-0.42242 0.13946,-1.082113 -0.0385,-1.48065 -0.25118,-0.56261 -0.762,-0.905305 -1.34887,-0.904915 -0.62689,4.19e-4 -1.10396,0.315682 -1.3819,0.913204 -0.17882,0.384416 -0.19938,1.038394 -0.0465,1.478437 0.27362,0.787438 1.08408,1.195425 1.8942,0.95352 z m -1.34199,-1.640218 0.0149,-1.208454 0.63896,0.0049 c 0.48436,0.0029 0.68241,0.02721 0.81858,0.09818 0.45909,0.239341 0.46996,0.967651 0.0177,1.184786 l -0.21152,0.101541 0.26762,0.472274 c 0.1472,0.259752 0.26916,0.491017 0.27102,0.513935 0.002,0.02292 -0.12139,0.04164 -0.27387,0.04164 h -0.27725 l -0.25114,-0.500049 c -0.21523,-0.428564 -0.27091,-0.500048 -0.38948,-0.500048 -0.13717,0 -0.13834,0.0049 -0.13834,0.500048 v 0.500049 h -0.25112 -0.25111 l 0.0149,-1.208455 z m 1.19843,-0.302808 c 0.0367,-0.03667 0.0667,-0.131675 0.0667,-0.211127 0,-0.216745 -0.10014,-0.277804 -0.45559,-0.277804 h -0.32226 v 0.277804 0.277803 h 0.32226 c 0.17723,0 0.35225,-0.02994 0.38893,-0.06671 z"
       id="path41" />
  </g>
</svg>
